<?xml version="1.0" encoding="utf-8"?>
<!-- Generator: Adobe Illustrator 16.0.0, SVG Export Plug-In . SVG Version: 6.00 Build 0)  -->
<!DOCTYPE svg PUBLIC "-//W3C//DTD SVG 1.1//EN" "http://www.w3.org/Graphics/SVG/1.1/DTD/svg11.dtd">
<svg version="1.1" id="Layer_1" xmlns="http://www.w3.org/2000/svg" xmlns:xlink="http://www.w3.org/1999/xlink" x="0px" y="0px"
	 width="360px" height="360px" viewBox="0 0 360 360" enable-background="new 0 0 360 360" xml:space="preserve">
<g>
	<circle cx="180" cy="180" r="159.5"/>
	<path fill="#FFFFFF" d="M180,342c-89.328,0-162.001-72.673-162.001-162C17.999,90.673,90.672,18,180,18s162.002,72.673,162.002,162
		C342.002,269.327,269.328,342,180,342z M180,23C93.429,23,22.999,93.43,22.999,180c0,86.57,70.431,157,157.001,157
		c86.571,0,157.002-70.43,157.002-157C337.002,93.43,266.571,23,180,23z"/>
</g>
<path fill="none" d="M159.836,145.514v27.58c13.554,4.777,56.117,16.84,100.664-0.844v-26.986
	C214.428,149.48,174.725,146.839,159.836,145.514z"/>
<path fill="none" d="M166.128,184.586l44.04,44.26l44.836-45.059c-15.84,5.104-31.126,6.922-44.86,6.922
	C192.006,190.709,176.58,187.541,166.128,184.586z"/>
<path fill="#FFFFFF" d="M239,140.599V92.013c0-2.209-1.791-4-4-4s-4,1.791-4,4v3.874c-46.072,4.216-85.776,1.575-100.664,0.25
	v-4.124c0-2.209-1.791-4-4-4s-4,1.791-4,4v48.585H109.5v7h12.837v26.884l-0.104,0.234c0.023,0.011,0.069,0.03,0.104,0.046v0.25
	c0,1.102,0.445,2.098,1.165,2.82l-0.001,0.002l51.524,51.78l-42.165,42.373h11.286l36.522-36.703l36.521,36.703h11.285
	l-42.164-42.373l51.516-51.772c0,0,0.002-0.002,0.004-0.004l0.004-0.004c0.721-0.725,1.166-1.721,1.166-2.822v-27.414h11.5v-7H239z
	 M180.668,223.945l-44.041-44.26c10.452,2.956,25.878,6.124,44.015,6.124c13.734,0,29.021-1.818,44.861-6.923L180.668,223.945z
	 M231,167.349c-44.547,17.685-87.11,5.621-100.664,0.844v-27.58c14.888,1.325,54.591,3.966,100.664-0.25V167.349z"/>
</svg>
