<?xml version="1.0" encoding="utf-8"?>
<!-- Generator: Adobe Illustrator 16.0.0, SVG Export Plug-In . SVG Version: 6.00 Build 0)  -->
<!DOCTYPE svg PUBLIC "-//W3C//DTD SVG 1.1//EN" "http://www.w3.org/Graphics/SVG/1.1/DTD/svg11.dtd">
<svg version="1.1" id="Layer_1" xmlns="http://www.w3.org/2000/svg" xmlns:xlink="http://www.w3.org/1999/xlink" x="0px" y="0px"
	 width="500px" height="500px" viewBox="0 0 500 500" enable-background="new 0 0 500 500" xml:space="preserve">
<g>
	<path fill="#D9D9D9" d="M-227.821,227.301l6.718,6.121v22.049c0,1.562-1.27,2.83-2.83,2.83h-18.249c-1.561,0-2.83-1.27-2.83-2.83
		v-25.34c0-1.561,1.27-2.83,2.83-2.83H-227.821 M-227.434,226.301h-14.749c-2.106,0-3.83,1.724-3.83,3.83v25.34
		c0,2.106,1.724,3.83,3.83,3.83h18.249c2.106,0,3.83-1.724,3.83-3.83V232.98L-227.434,226.301L-227.434,226.301z"/>
</g>
<g>
	<path fill="#D9D9D9" d="M-299.104,227.801c1.654,0,3,1.346,3,3v25c0,1.654-1.346,3-3,3h-18c-1.654,0-3-1.346-3-3v-25
		c0-1.654,1.346-3,3-3H-299.104 M-299.104,226.801h-18c-2.2,0-4,1.8-4,4v25c0,2.2,1.8,4,4,4h18c2.2,0,4-1.8,4-4v-25
		C-295.104,228.601-296.903,226.801-299.104,226.801L-299.104,226.801z"/>
</g>
<g>
	<path fill="#D9D9D9" d="M-373.684,227.301c1.654,0,3,1.346,3,3v25c0,1.654-1.346,3-3,3h-18c-1.654,0-3-1.346-3-3v-25
		c0-1.654,1.346-3,3-3H-373.684 M-373.684,226.301h-18c-2.2,0-4,1.8-4,4v25c0,2.2,1.8,4,4,4h18c2.2,0,4-1.8,4-4v-25
		C-369.684,228.101-371.483,226.301-373.684,226.301L-373.684,226.301z"/>
</g>
<g>
	<g>
		<path fill="#F9ED32" d="M-216.278,222.058c-2.969-3.067-6.955-4.797-11.225-4.861c-0.974-0.016-1.949,0.056-2.898,0.213
			c-3.813,0.636-7.124,2.591-9.492,5.357c-0.032,0.036-0.059,0.068-0.086,0.104l1.642,0.438c0.029-0.028,0.057-0.063,0.087-0.094
			c2.1-2.215,4.904-3.77,8.1-4.302c0.86-0.143,1.743-0.209,2.622-0.195c3.864,0.062,7.472,1.625,10.161,4.399
			c2.685,2.774,4.133,6.43,4.071,10.293c-0.053,3.536-1.382,6.792-3.569,9.295c-0.044,0.046-0.084,0.093-0.127,0.137l-0.529,2.626
			c0.151-0.128,0.304-0.257,0.448-0.389c3.215-2.892,5.226-7.056,5.3-11.643C-211.707,229.163-213.306,225.123-216.278,222.058z"/>
		<g>
			<path fill="#F9ED32" d="M-226.524,210.38L-226.524,210.38L-226.524,210.38c0.007-0.478-0.375-0.872-0.856-0.879
				c-0.479-0.009-0.874,0.375-0.881,0.854l0,0h-0.002l-0.061,3.721l0.003,0.001c0,0.474,0.379,0.861,0.855,0.869
				c0.473,0.008,0.864-0.369,0.879-0.839h0.002L-226.524,210.38z"/>
			<path fill="#F9ED32" d="M-208.639,232.615L-208.639,232.615L-208.639,232.615c-0.483-0.006-0.874,0.375-0.883,0.854
				c-0.005,0.479,0.378,0.874,0.856,0.88l0,0v0.003l3.717,0.059l0.002-0.002c0.474,0.001,0.863-0.378,0.868-0.851
				c0.01-0.477-0.366-0.868-0.841-0.883v-0.002L-208.639,232.615z"/>
			<path fill="#F9ED32" d="M-214.639,219.262L-214.639,219.262L-214.639,219.262c-0.343,0.333-0.352,0.884-0.019,1.228
				c0.335,0.343,0.883,0.354,1.226,0.021l0,0h0.002l2.671-2.589v-0.002c0.338-0.336,0.344-0.879,0.015-1.221
				c-0.33-0.341-0.875-0.352-1.217-0.024c0,0-0.002-0.003-0.005-0.003L-214.639,219.262z"/>
			<g>
				<path fill="#F9ED32" d="M-243.012,216.184L-243.012,216.184L-243.012,216.184c-0.332-0.345-0.882-0.354-1.226-0.018
					c-0.343,0.333-0.352,0.881-0.018,1.226c-0.001,0.003-0.001,0.003-0.001,0.003h-0.001l2.589,2.67c0,0,0.001,0,0.003-0.001
					c0.333,0.337,0.873,0.343,1.216,0.014c0.344-0.333,0.352-0.871,0.028-1.218l0.002-0.001L-243.012,216.184z"/>
				<path fill="#F9ED32" d="M-213.842,246.3L-213.842,246.3L-213.842,246.3c-0.333-0.343-0.879-0.354-1.225-0.021
					c-0.345,0.334-0.356,0.885-0.022,1.231l0,0h-0.001l2.588,2.672c0,0,0-0.001,0.004-0.001c0.334,0.336,0.875,0.344,1.218,0.013
					c0.342-0.332,0.353-0.873,0.026-1.219l0.001-0.002L-213.842,246.3z"/>
			</g>
		</g>
	</g>
</g>
<path fill="#D9D9D9" d="M-228.008,226.301h1.128l6.776,6.773v0.905h-1.581h-4.063c-1.244,0-2.26-1.018-2.26-2.261v-3.837V226.301
	L-228.008,226.301z"/>
<g>
	<path fill="#F9A870" d="M-234.392,243.511c0,1.1-0.9,2-2,2h-18.597c-1.1,0-2-0.9-2-2v-9.988c0-1.1,0.9-2,2-2h18.597
		c1.1,0,2,0.9,2,2V243.511L-234.392,243.511z"/>
</g>
<text transform="matrix(1 0 0 1 -255.1055 241.7441)" fill="#FFFFFF" font-family="'OpenSans-Bold'" font-size="8.6488">XML</text>
<g>
	<g>
		<path fill="#F9ED32" d="M-291.278,223.058c-2.969-3.067-6.955-4.797-11.225-4.861c-0.974-0.016-1.949,0.056-2.898,0.213
			c-3.813,0.636-7.124,2.591-9.492,5.357c-0.032,0.036-0.059,0.068-0.086,0.104l1.642,0.438c0.029-0.028,0.057-0.063,0.087-0.094
			c2.1-2.215,4.904-3.77,8.1-4.302c0.86-0.143,1.743-0.209,2.622-0.195c3.864,0.062,7.472,1.625,10.161,4.399
			c2.685,2.774,4.133,6.43,4.071,10.293c-0.053,3.536-1.382,6.792-3.569,9.295c-0.044,0.046-0.084,0.093-0.127,0.137l-0.529,2.626
			c0.151-0.128,0.304-0.257,0.448-0.389c3.215-2.892,5.226-7.056,5.3-11.643C-286.707,230.163-288.306,226.123-291.278,223.058z"/>
		<g>
			<path fill="#F9ED32" d="M-301.524,211.38L-301.524,211.38L-301.524,211.38c0.007-0.478-0.375-0.872-0.856-0.879
				c-0.479-0.009-0.874,0.375-0.881,0.854l0,0h-0.002l-0.061,3.721l0.003,0.001c0,0.474,0.379,0.861,0.855,0.869
				c0.473,0.008,0.864-0.369,0.879-0.839h0.002L-301.524,211.38z"/>
			<path fill="#F9ED32" d="M-283.639,233.615L-283.639,233.615L-283.639,233.615c-0.483-0.006-0.874,0.375-0.883,0.854
				c-0.005,0.479,0.378,0.874,0.856,0.88l0,0v0.003l3.717,0.059l0.002-0.002c0.474,0.001,0.863-0.378,0.868-0.851
				c0.01-0.477-0.366-0.868-0.841-0.883v-0.002L-283.639,233.615z"/>
			<path fill="#F9ED32" d="M-289.639,220.262L-289.639,220.262L-289.639,220.262c-0.343,0.333-0.352,0.884-0.019,1.228
				c0.335,0.343,0.883,0.354,1.226,0.021l0,0h0.002l2.671-2.589v-0.002c0.338-0.336,0.344-0.879,0.015-1.221
				c-0.33-0.341-0.875-0.352-1.217-0.024c0,0-0.002-0.003-0.005-0.003L-289.639,220.262z"/>
			<g>
				<path fill="#F9ED32" d="M-318.012,217.184L-318.012,217.184L-318.012,217.184c-0.332-0.345-0.882-0.354-1.226-0.018
					c-0.343,0.333-0.352,0.881-0.018,1.226c-0.001,0.003-0.001,0.003-0.001,0.003h-0.001l2.589,2.67c0,0,0.001,0,0.003-0.001
					c0.333,0.337,0.873,0.343,1.216,0.014c0.344-0.333,0.352-0.871,0.028-1.218l0.002-0.001L-318.012,217.184z"/>
				<path fill="#F9ED32" d="M-288.842,247.3L-288.842,247.3L-288.842,247.3c-0.333-0.343-0.879-0.354-1.225-0.021
					c-0.345,0.334-0.356,0.885-0.022,1.231l0,0h-0.001l2.588,2.672c0,0,0,0,0.004,0c0.334,0.336,0.875,0.344,1.218,0.012
					c0.342-0.332,0.353-0.873,0.026-1.218l0.001-0.002L-288.842,247.3z"/>
			</g>
		</g>
	</g>
</g>
<g>
	<path fill="#58A1D4" d="M-309.392,244.511c0,1.1-0.9,2-2,2h-18.597c-1.1,0-2-0.9-2-2v-9.988c0-1.1,0.9-2,2-2h18.597
		c1.1,0,2,0.9,2,2V244.511L-309.392,244.511z"/>
</g>
<text transform="matrix(1 0 0 1 -330.1055 242.7441)" fill="#FFFFFF" font-family="'OpenSans-Bold'" font-size="8.6488">BOX</text>
<g>
	<g>
		<path fill="#F9ED32" d="M-366.278,223.058c-2.969-3.067-6.955-4.797-11.225-4.861c-0.974-0.016-1.949,0.056-2.898,0.213
			c-3.813,0.636-7.124,2.591-9.492,5.357c-0.032,0.036-0.059,0.068-0.086,0.104l1.642,0.438c0.029-0.028,0.057-0.063,0.087-0.094
			c2.1-2.215,4.904-3.77,8.1-4.302c0.86-0.143,1.743-0.209,2.622-0.195c3.864,0.062,7.472,1.625,10.161,4.399
			c2.685,2.774,4.133,6.43,4.071,10.293c-0.053,3.536-1.382,6.792-3.569,9.295c-0.044,0.046-0.084,0.093-0.127,0.137l-0.529,2.626
			c0.151-0.128,0.304-0.257,0.448-0.389c3.215-2.892,5.226-7.056,5.3-11.643C-361.707,230.163-363.306,226.123-366.278,223.058z"/>
		<g>
			<path fill="#F9ED32" d="M-376.524,211.38L-376.524,211.38L-376.524,211.38c0.007-0.478-0.375-0.872-0.856-0.879
				c-0.479-0.009-0.874,0.375-0.881,0.854l0,0h-0.002l-0.061,3.721l0.003,0.001c0,0.474,0.379,0.861,0.855,0.869
				c0.473,0.008,0.864-0.369,0.879-0.839h0.002L-376.524,211.38z"/>
			<path fill="#F9ED32" d="M-358.639,233.615L-358.639,233.615L-358.639,233.615c-0.483-0.006-0.874,0.375-0.883,0.854
				c-0.005,0.479,0.378,0.874,0.856,0.88l0,0v0.003l3.717,0.059l0.002-0.002c0.474,0.001,0.863-0.378,0.868-0.851
				c0.01-0.477-0.366-0.868-0.841-0.883v-0.002L-358.639,233.615z"/>
			<path fill="#F9ED32" d="M-364.639,220.262L-364.639,220.262L-364.639,220.262c-0.343,0.333-0.352,0.884-0.019,1.228
				c0.335,0.343,0.883,0.354,1.226,0.021l0,0h0.002l2.671-2.589v-0.002c0.338-0.336,0.344-0.879,0.015-1.221
				c-0.33-0.341-0.875-0.352-1.217-0.024c0,0-0.002-0.003-0.005-0.003L-364.639,220.262z"/>
			<g>
				<path fill="#F9ED32" d="M-393.012,217.184L-393.012,217.184L-393.012,217.184c-0.332-0.345-0.882-0.354-1.226-0.018
					c-0.343,0.333-0.352,0.881-0.018,1.226c-0.001,0.003-0.001,0.003-0.001,0.003h-0.001l2.589,2.67c0,0,0.001,0,0.003-0.001
					c0.333,0.337,0.873,0.343,1.216,0.014c0.344-0.333,0.352-0.871,0.028-1.218l0.002-0.001L-393.012,217.184z"/>
				<path fill="#F9ED32" d="M-363.842,247.3L-363.842,247.3L-363.842,247.3c-0.333-0.343-0.879-0.354-1.225-0.021
					c-0.345,0.334-0.356,0.885-0.022,1.231l0,0h-0.001l2.588,2.672c0,0,0,0,0.004,0c0.334,0.336,0.875,0.344,1.218,0.012
					c0.342-0.332,0.353-0.873,0.026-1.218l0.001-0.002L-363.842,247.3z"/>
			</g>
		</g>
	</g>
</g>
<g>
	<path fill="#EF4136" d="M-384.392,244.511c0,1.1-0.9,2-2,2h-18.597c-1.1,0-2-0.9-2-2v-9.988c0-1.1,0.9-2,2-2h18.597
		c1.1,0,2,0.9,2,2V244.511L-384.392,244.511z"/>
</g>
<g>
	<g>
		<path fill="#F9ED32" d="M-137.044,234.995c-0.03-0.212-0.063-0.42-0.103-0.632c-0.006-0.038-0.012-0.075-0.021-0.112
			c-0.001-0.007-0.004-0.018-0.003-0.026c-0.019-0.089-0.036-0.174-0.056-0.259c-0.037-0.168-0.068-0.331-0.109-0.499
			c-0.028-0.122-0.063-0.238-0.094-0.362c-0.037-0.128-0.067-0.258-0.104-0.385c-0.91-3.115-2.726-5.85-5.244-7.897
			c-0.028-0.028-0.059-0.049-0.085-0.074c-0.175-0.139-0.353-0.278-0.532-0.411c-0.034-0.025-0.067-0.049-0.104-0.068
			c-0.139-0.104-0.278-0.209-0.424-0.306c-0.045-0.029-0.093-0.059-0.139-0.089c0,0-0.002-0.003-0.004-0.003
			c-3.521-2.336-7.733-3.186-11.888-2.392c-2.105,0.401-4.076,1.203-5.851,2.381c-5.168,3.428-7.865,9.458-7.032,15.549
			c0.002,0.022,0.006,0.047,0.008,0.073c0.033,0.221,0.068,0.445,0.109,0.669c0.006,0.029,0.01,0.057,0.016,0.086
			c0.002,0.006,0.003,0.015,0.004,0.022c0.012,0.062,0.027,0.124,0.041,0.187c0.04,0.199,0.084,0.399,0.129,0.601
			c0.014,0.053,0.03,0.102,0.045,0.153c0.051,0.211,0.105,0.421,0.167,0.627c0.019,0.059,0.039,0.118,0.057,0.177
			c0.061,0.194,0.123,0.39,0.193,0.582c0.024,0.078,0.053,0.15,0.079,0.227c0.066,0.171,0.129,0.345,0.199,0.514
			c0.04,0.093,0.081,0.184,0.119,0.275c0.066,0.149,0.131,0.3,0.199,0.451c0.049,0.104,0.103,0.206,0.151,0.308
			c0.068,0.136,0.135,0.269,0.207,0.404c0.053,0.103,0.11,0.204,0.168,0.304c0.074,0.133,0.147,0.271,0.229,0.401
			c0.041,0.071,0.086,0.137,0.129,0.204c0.091,0.149,0.179,0.3,0.275,0.445c1.929,2.907,4.649,4.979,7.688,6.125
			c0.049,0.02,0.097,0.038,0.143,0.056c0.15,0.056,0.301,0.106,0.45,0.158c0.114,0.038,0.227,0.075,0.345,0.112
			c0.088,0.025,0.178,0.051,0.27,0.08c0.174,0.049,0.344,0.095,0.519,0.143c0.037,0.012,0.07,0.014,0.108,0.023
			c1.443,0.36,2.953,0.524,4.49,0.463c2.088-0.078,4.182-0.568,6.153-1.484c0.03-0.02,0.061-0.035,0.091-0.049
			c0.207-0.098,0.407-0.196,0.61-0.305c0.105-0.057,0.209-0.119,0.313-0.172c0.128-0.072,0.255-0.146,0.381-0.217
			c0.189-0.113,0.378-0.23,0.56-0.352c0.043-0.028,0.086-0.053,0.129-0.081c0.012-0.007,0.023-0.019,0.034-0.024
			c0.192-0.126,0.376-0.256,0.559-0.392c0.069-0.048,0.134-0.098,0.198-0.147c0.136-0.104,0.274-0.206,0.405-0.314
			c0.062-0.047,0.122-0.097,0.181-0.146c0.182-0.151,0.362-0.305,0.538-0.461c0.028-0.026,0.058-0.055,0.09-0.084
			c0.151-0.143,0.295-0.282,0.444-0.427c0.044-0.043,0.086-0.089,0.131-0.131c0.152-0.155,0.3-0.313,0.445-0.475
			c0.016-0.012,0.031-0.031,0.042-0.047c3.117-3.457,4.603-8.141,3.965-12.864C-137.035,235.071-137.039,235.033-137.044,234.995z
			 M-138.907,233.495c0.031,0.113,0.063,0.221,0.088,0.333c0.036,0.146,0.066,0.298,0.097,0.442c0.02,0.091,0.04,0.178,0.054,0.267
			c0.007,0.034,0.015,0.066,0.02,0.102c0.033,0.188,0.065,0.382,0.092,0.569c0.006,0.036,0.008,0.071,0.015,0.104
			c0.554,4.168-0.724,8.453-3.583,11.635c-0.016,0.02-0.033,0.037-0.048,0.053c-0.129,0.143-0.259,0.282-0.396,0.42
			c-0.04,0.042-0.083,0.083-0.123,0.124c-0.128,0.127-0.259,0.254-0.395,0.377c-0.03,0.029-0.059,0.056-0.09,0.082
			c-0.156,0.141-0.317,0.282-0.48,0.415c-0.054,0.046-0.114,0.092-0.169,0.136c-0.119,0.096-0.238,0.19-0.36,0.285
			c-0.062,0.043-0.121,0.086-0.184,0.133c-0.163,0.121-0.327,0.238-0.5,0.352c-0.013,0.009-0.026,0.021-0.04,0.029
			c-0.041,0.028-0.086,0.053-0.131,0.08c-0.158,0.105-0.322,0.208-0.485,0.306c-0.12,0.068-0.241,0.137-0.362,0.204
			c-0.09,0.048-0.176,0.099-0.266,0.148c-0.192,0.102-0.386,0.197-0.582,0.289c-0.019,0.007-0.037,0.019-0.052,0.026
			c-1.083,0.503-2.225,0.871-3.417,1.098c-0.723,0.141-1.445,0.221-2.163,0.247c-0.187,0.009-0.376,0.012-0.565,0.011
			c-0.039,0-0.077,0.004-0.115,0c-0.924-0.006-1.844-0.104-2.749-0.285c-0.004,0-0.013-0.002-0.019-0.004
			c-0.192-0.039-0.385-0.085-0.572-0.132c-0.047-0.009-0.093-0.021-0.142-0.032c-0.145-0.037-0.285-0.078-0.43-0.119
			c-0.097-0.026-0.193-0.054-0.286-0.084c-0.087-0.024-0.18-0.061-0.27-0.088c-0.147-0.051-0.296-0.102-0.441-0.154
			c-0.034-0.012-0.068-0.025-0.099-0.037c-2.984-1.133-5.55-3.227-7.245-5.979c-0.034-0.055-0.069-0.105-0.101-0.158
			c-0.075-0.125-0.146-0.254-0.217-0.381c-0.049-0.086-0.097-0.17-0.142-0.257c-0.066-0.125-0.129-0.254-0.191-0.384
			c-0.047-0.086-0.092-0.172-0.133-0.26c-0.063-0.14-0.123-0.28-0.185-0.424c-0.035-0.077-0.072-0.154-0.104-0.234
			c-0.063-0.158-0.121-0.317-0.181-0.474c-0.024-0.066-0.051-0.133-0.075-0.197c-0.062-0.176-0.116-0.354-0.173-0.533
			c-0.014-0.051-0.033-0.104-0.049-0.154c-0.056-0.187-0.105-0.381-0.155-0.569c-0.013-0.047-0.023-0.093-0.036-0.139
			c-0.046-0.18-0.08-0.361-0.119-0.545c-0.014-0.063-0.029-0.125-0.038-0.188c-0.008-0.024-0.01-0.046-0.014-0.074
			c-0.039-0.204-0.071-0.405-0.099-0.608c-0.003-0.021-0.008-0.04-0.009-0.062c-0.72-5.345,1.574-10.886,6.361-14.061
			c5.198-3.448,11.822-3.099,16.59,0.373c0.02,0.012,0.039,0.026,0.062,0.044c0.174,0.127,0.342,0.258,0.511,0.394
			c0.016,0.015,0.031,0.026,0.048,0.04c1.103,0.901,2.093,1.978,2.917,3.226c0.826,1.243,1.434,2.568,1.835,3.931
			C-138.966,233.265-138.937,233.382-138.907,233.495z"/>
		<path fill="#F9ED32" d="M-156.375,219.261c0.468-0.089,0.775-0.541,0.693-1.008c-0.002-0.002,0,0,0,0l-0.699-3.672l-0.005,0.001
			l0,0c-0.089-0.475-0.547-0.783-1.019-0.691c-0.472,0.087-0.78,0.543-0.691,1.019l0,0h-0.002l0.703,3.668l0.003,0.001
			C-157.298,219.045-156.844,219.349-156.375,219.261z"/>
		<path fill="#F9ED32" d="M-149.491,255.232c-0.473,0.093-0.779,0.55-0.692,1.021l0,0l0.001,0.002l0.701,3.666l0.002,0.002
			c0.096,0.468,0.549,0.771,1.02,0.681c0.465-0.088,0.771-0.541,0.691-1.004c0.003,0,0.004-0.002,0.004-0.002l-0.704-3.67
			l-0.003-0.002l0,0C-148.563,255.453-149.019,255.143-149.491,255.232z"/>
		<path fill="#F9ED32" d="M-175.272,242.406l0.002-0.003L-175.272,242.406l3.672-0.702l-0.002-0.004
			c0.467-0.095,0.77-0.546,0.682-1.015c-0.091-0.471-0.54-0.776-1.008-0.694v-0.001l-3.672,0.702v0.001l0,0
			c-0.471,0.091-0.78,0.546-0.69,1.02C-176.197,242.187-175.745,242.497-175.272,242.406z"/>
		<path fill="#F9ED32" d="M-130.583,232.077v-0.003l-3.674,0.704l0,0l0,0c-0.472,0.09-0.78,0.547-0.69,1.021
			c0.092,0.474,0.544,0.779,1.019,0.69l0,0v0.004l3.672-0.702c0.001-0.002,0.002-0.006,0.002-0.006
			c0.462-0.095,0.768-0.543,0.679-1.016C-129.668,232.303-130.115,231.994-130.583,232.077z"/>
		<path fill="#F9ED32" d="M-163.22,252.396c-0.395-0.269-0.928-0.17-1.202,0.222l-0.001-0.002l-2.099,3.093l0.001,0.002l0,0
			c-0.271,0.396-0.166,0.938,0.231,1.211c0.397,0.27,0.939,0.163,1.211-0.232l0,0l-0.001,0.002l2.099-3.094h-0.003
			C-162.72,253.2-162.824,252.665-163.22,252.396z"/>
		<path fill="#F9ED32" d="M-142.65,222.09c0.398,0.267,0.941,0.167,1.209-0.234l0.004,0.002l2.1-3.09l-0.006-0.002
			c0.264-0.398,0.159-0.934-0.233-1.202c-0.398-0.269-0.933-0.167-1.203,0.225l-0.003-0.002l-2.101,3.092h0.002l0,0
			C-143.153,221.276-143.047,221.819-142.65,222.09z"/>
		<path fill="#F9ED32" d="M-172.381,225.096l0.001,0.003l3.088,2.1l0.004-0.003c0.396,0.261,0.933,0.154,1.2-0.237
			c0.266-0.396,0.166-0.933-0.222-1.203v-0.001l-3.092-2.102l-0.002,0.002l0,0c-0.396-0.268-0.937-0.165-1.207,0.233
			C-172.882,224.286-172.781,224.828-172.381,225.096L-172.381,225.096z"/>
		<path fill="#F9ED32" d="M-133.477,249.391l-3.094-2.097l-0.001,0.002l0,0c-0.399-0.273-0.94-0.166-1.208,0.229
			c-0.27,0.398-0.169,0.944,0.229,1.211l0,0l0.001,0.002l3.089,2.099l0.004-0.005c0.397,0.268,0.932,0.162,1.2-0.236
			c0.267-0.395,0.169-0.931-0.225-1.201L-133.477,249.391z"/>
	</g>
	<g>
		<g>
			<path fill="#D9D9D9" d="M-133.911,260.904c-0.349,0-0.681-0.133-0.935-0.37l-19.397-18.453c-0.006-0.002-0.011-0.004-0.017-0.006
				l-26.803,1.931c-0.703,0-1.295-0.552-1.348-1.256c-0.047-0.637,0.363-1.226,0.976-1.401l25.668-7.566
				c0.005-0.005,0.011-0.009,0.016-0.014l11.679-24.087c0.229-0.466,0.707-0.765,1.221-0.765c0.207,0,0.415,0.049,0.602,0.142
				c0.568,0.276,0.868,0.907,0.719,1.53l-6.284,26.024c0.001,0.006,0.002,0.013,0.003,0.019l15.023,22.155
				c0.204,0.306,0.277,0.681,0.205,1.033c-0.072,0.355-0.278,0.66-0.58,0.857C-133.368,260.821-133.634,260.904-133.911,260.904
				L-133.911,260.904z"/>
			<path fill="#FFFFFF" d="M-142.852,209.824c0.066,0,0.134,0.015,0.197,0.046c0.193,0.094,0.288,0.307,0.24,0.507l-6.331,26.219
				c0.027,0.127,0.053,0.251,0.068,0.377l15.137,22.323c0.137,0.205,0.085,0.487-0.122,0.623c-0.076,0.054-0.163,0.078-0.249,0.078
				c-0.114,0-0.227-0.044-0.313-0.124l-19.54-18.589c-0.124-0.04-0.244-0.08-0.36-0.129l-26.903,1.941
				c-0.012,0.001-0.023,0.001-0.035,0.001c-0.229,0-0.425-0.179-0.442-0.415c-0.016-0.213,0.123-0.405,0.32-0.462l25.874-7.627
				c0.095-0.09,0.188-0.172,0.288-0.247l11.767-24.27C-143.178,209.918-143.018,209.824-142.852,209.824 M-142.852,208.008
				c-0.856,0-1.655,0.498-2.033,1.269l-11.513,23.745l-25.301,7.458c-1.01,0.29-1.694,1.274-1.617,2.336
				c0.089,1.178,1.078,2.098,2.253,2.098h0.072l0.107-0.007l26.298-1.897l19.11,18.18c0.43,0.404,0.982,0.625,1.563,0.625
				c0.454,0,0.892-0.136,1.267-0.392c0.493-0.332,0.83-0.835,0.95-1.421c0.12-0.588-0.002-1.212-0.335-1.712l-14.813-21.844
				l6.192-25.642c0.25-1.045-0.249-2.099-1.213-2.566C-142.156,208.09-142.505,208.008-142.852,208.008L-142.852,208.008z"/>
		</g>
		<g>
			<path fill="#FFFFFF" d="M-152.605,239.85c-0.696,0-1.354-0.306-1.802-0.839c-0.407-0.479-0.604-1.09-0.551-1.72
				c0.054-0.628,0.349-1.198,0.832-1.604c0.423-0.356,0.964-0.555,1.52-0.555c0.694,0,1.35,0.303,1.798,0.83
				c0.409,0.482,0.604,1.094,0.552,1.723c-0.052,0.629-0.346,1.199-0.827,1.606C-151.506,239.65-152.047,239.85-152.605,239.85z"/>
			<path fill="#D9D9D9" d="M-152.606,236.04c0.411,0,0.819,0.173,1.106,0.51c0.52,0.613,0.441,1.531-0.17,2.048
				c-0.271,0.231-0.604,0.345-0.936,0.345c-0.412,0-0.821-0.175-1.107-0.516c-0.52-0.611-0.445-1.527,0.171-2.045
				C-153.271,236.152-152.938,236.04-152.606,236.04 M-152.606,234.225L-152.606,234.225c-0.771,0-1.519,0.274-2.106,0.771
				c-0.666,0.56-1.076,1.35-1.149,2.22c-0.073,0.872,0.199,1.72,0.767,2.388c0.615,0.731,1.525,1.155,2.49,1.155
				c0.773,0,1.524-0.276,2.113-0.779c0.66-0.558,1.067-1.348,1.141-2.218c0.072-0.871-0.199-1.718-0.764-2.384
				C-150.738,234.644-151.646,234.225-152.606,234.225L-152.606,234.225z"/>
		</g>
	</g>
</g>
<polygon fill="#FFFFFF" points="-396.845,243.681 -392.189,239.851 -396.845,236.021 "/>
<g id="Layer_2">
	<path fill="#D4D4D4" d="M310.108,499.114"/>
	<path fill="#D4D4D4" d="M310.108,499.114"/>
	<g>
		<path fill="#D4D4D4" d="M391.51,378.054c-65.583-23.896-86.538-44.049-86.538-87.216c0-25.922,20.021-17.454,28.827-64.905
			c3.635-19.66,21.323-0.313,24.703-45.247c0-17.894-9.635-22.36-9.635-22.36s4.881-26.488,6.802-46.881
			c2.392-25.397-14.674-91.058-105.653-91.058c-91.011,0-108.071,65.659-105.686,91.058c1.923,20.394,6.828,46.881,6.828,46.881
			s-9.662,4.47-9.662,22.36c3.379,44.937,21.067,25.588,24.705,45.247c8.801,47.451,28.829,38.986,28.829,64.905
			c0,43.167-20.957,63.32-86.519,87.216C42.725,402.027,0,426.442,0,443.116v55.998h500v-55.998
			C499.999,426.442,457.274,402.029,391.51,378.054L391.51,378.054z"/>
	</g>
</g>
</svg>
